<svg xmlns="http://www.w3.org/2000/svg" width="600" height="400" viewBox="0 0 600 400"><rect width="100%" height="100%" fill="#DDDDDD"/><path fill="#999999" d="M124.27 204.365h10.12v-10.87q0-1.54.2-3.41l-10.32 14.28Zm15.06 0h4.19v3.29q0 .46-.3.8-.3.33-.85.33h-3.04v8.12h-4.94v-8.12h-14.03q-.58 0-1.01-.36-.44-.35-.56-.88l-.59-2.88 15.75-21.04h5.38v20.74Zm30.89-4.09q0 4.35-.93 7.56-.93 3.2-2.58 5.3-1.64 2.09-3.88 3.11-2.25 1.03-4.84 1.03-2.6 0-4.82-1.03-2.22-1.02-3.86-3.11-1.63-2.1-2.55-5.3-.92-3.21-.92-7.56 0-4.37.92-7.57.92-3.19 2.55-5.29 1.64-2.09 3.86-3.11 2.22-1.03 4.82-1.03 2.59 0 4.84 1.03 2.24 1.02 3.88 3.11 1.65 2.1 2.58 5.29.93 3.2.93 7.57Zm-5.86 0q0-3.61-.53-5.98-.53-2.37-1.42-3.77-.88-1.4-2.03-1.97-1.15-.56-2.39-.56-1.22 0-2.36.56-1.14.57-2.01 1.97-.88 1.4-1.4 3.77-.51 2.37-.51 5.98 0 3.61.51 5.98.52 2.37 1.4 3.77.87 1.41 2.01 1.97 1.14.56 2.36.56 1.24 0 2.39-.56 1.15-.56 2.03-1.97.89-1.4 1.42-3.77.53-2.37.53-5.98Zm13.27 4.09h10.12v-10.87q0-1.54.2-3.41l-10.32 14.28Zm15.06 0h4.19v3.29q0 .46-.3.8-.3.33-.85.33h-3.04v8.12h-4.94v-8.12h-14.03q-.58 0-1.01-.36-.44-.35-.56-.88l-.59-2.88 15.75-21.04h5.38v20.74Zm37.75-8.14-1.5 2.07q-.25.32-.49.51-.25.18-.71.18-.43 0-.85-.26-.41-.27-.99-.6-.57-.33-1.36-.6-.8-.26-1.97-.26-1.5 0-2.62.54-1.13.54-1.88 1.55-.74 1.01-1.11 2.45-.37 1.44-.37 3.25 0 1.89.4 3.36.4 1.48 1.16 2.48.76 1 1.84 1.51 1.08.52 2.44.52 1.36 0 2.2-.33.84-.34 1.41-.74.58-.4 1-.73.43-.34.96-.34.69 0 1.03.53l1.64 2.07q-.95 1.1-2.05 1.85-1.11.75-2.29 1.2-1.18.45-2.44.63-1.25.18-2.49.18-2.19 0-4.12-.81-1.93-.82-3.38-2.38-1.45-1.57-2.29-3.83-.84-2.27-.84-5.17 0-2.59.75-4.81.75-2.22 2.19-3.84 1.45-1.63 3.59-2.55 2.14-.92 4.92-.92 2.65 0 4.64.86 1.99.85 3.58 2.43Zm16.23 14.59v-3.98q-2.46.11-4.14.42-1.68.31-2.69.79-1.01.49-1.45 1.13-.43.65-.43 1.4 0 1.5.88 2.14.89.65 2.31.65 1.75 0 3.03-.63 1.27-.64 2.49-1.92Zm-12-12.4-1.01-1.82q4.07-3.73 9.79-3.73 2.07 0 3.71.68 1.63.68 2.76 1.89 1.12 1.21 1.71 2.89.59 1.67.59 3.68v14.9h-2.58q-.8 0-1.24-.24-.44-.24-.69-.98l-.51-1.7q-.89.8-1.75 1.41-.85.61-1.77 1.03-.92.41-1.96.63-1.05.22-2.31.22-1.5 0-2.76-.4-1.27-.41-2.19-1.21-.92-.81-1.43-2-.5-1.2-.5-2.79 0-.89.3-1.78.3-.88.97-1.69.68-.8 1.76-1.52 1.09-.71 2.66-1.24 1.58-.53 3.67-.86 2.09-.34 4.78-.4v-1.38q0-2.37-1.01-3.51-1.01-1.14-2.92-1.14-1.38 0-2.29.32-.91.32-1.6.73-.69.4-1.25.72-.56.32-1.25.32-.6 0-1.02-.31-.41-.31-.66-.72Zm30.75 18.86q-3.08 0-4.73-1.74-1.64-1.73-1.64-4.79v-13.18h-2.42q-.46 0-.78-.3t-.32-.9v-2.25l3.79-.62 1.2-6.44q.11-.46.44-.72.32-.25.82-.25h2.95v7.43h6.3v4.05h-6.3v12.79q0 1.1.54 1.72.54.62 1.48.62.53 0 .89-.13.35-.12.62-.26.26-.14.47-.26.21-.13.41-.13.26 0 .42.13.16.12.34.37l1.71 2.77q-1.25 1.03-2.86 1.56-1.61.53-3.33.53Zm25.34-22.93.4 1.86q.71-.71 1.5-1.32.8-.61 1.68-1.04.89-.42 1.9-.66 1.01-.25 2.21-.25 1.93 0 3.42.66 1.5.65 2.5 1.84 1 1.18 1.52 2.83.51 1.64.51 3.62v15.02h-5.68v-15.02q0-2.16-.99-3.35-.98-1.18-3.01-1.18-1.47 0-2.76.67-1.29.66-2.44 1.81v17.07h-5.68v-23.6h3.48q1.1 0 1.44 1.04Zm31.47-1.41q2.62 0 4.77.86 2.15.85 3.68 2.41 1.53 1.56 2.36 3.82.83 2.25.83 5.03 0 2.81-.83 5.06-.83 2.26-2.36 3.85-1.53 1.58-3.68 2.43-2.15.85-4.77.85-2.65 0-4.81-.85-2.16-.85-3.69-2.43-1.53-1.59-2.37-3.85-.84-2.25-.84-5.06 0-2.78.84-5.03.84-2.26 2.37-3.82 1.53-1.56 3.69-2.41 2.16-.86 4.81-.86Zm0 19.94q2.94 0 4.36-1.97 1.41-1.98 1.41-5.8t-1.41-5.82q-1.42-2-4.36-2-2.99 0-4.43 2.01-1.44 2.02-1.44 5.81 0 3.8 1.44 5.79 1.44 1.98 4.43 1.98Zm23.85 4.4q-3.08 0-4.73-1.74-1.64-1.73-1.64-4.79v-13.18h-2.42q-.46 0-.78-.3t-.32-.9v-2.25l3.79-.62 1.2-6.44q.12-.46.44-.72.32-.25.83-.25h2.94v7.43h6.3v4.05h-6.3v12.79q0 1.1.54 1.72.54.62 1.48.62.53 0 .89-.13.36-.12.62-.26t.47-.26q.21-.13.42-.13.25 0 .41.13.16.12.34.37l1.71 2.77q-1.25 1.03-2.86 1.56-1.61.53-3.33.53Zm27.76-.37h-5.68v-19.32l-2.05-.32q-.66-.14-1.07-.47-.4-.34-.4-.96v-2.32h3.52v-1.75q0-2.02.61-3.63.61-1.61 1.75-2.74 1.14-1.13 2.77-1.72 1.63-.6 3.68-.6 1.63 0 3.03.43l-.11 2.86q-.02.32-.18.51-.17.2-.43.3-.26.11-.61.14-.34.04-.74.04-1.01 0-1.8.21-.79.22-1.35.76-.55.54-.84 1.43-.28.88-.28 2.2v1.56h6.14v4.05h-5.96v19.34Zm19.6-23.97q2.62 0 4.77.86 2.15.85 3.68 2.41 1.53 1.56 2.36 3.82.82 2.25.82 5.03 0 2.81-.82 5.06-.83 2.26-2.36 3.85-1.53 1.58-3.68 2.43-2.15.85-4.77.85-2.65 0-4.81-.85-2.16-.85-3.69-2.43-1.53-1.59-2.37-3.85-.84-2.25-.84-5.06 0-2.78.84-5.03.84-2.26 2.37-3.82 1.53-1.56 3.69-2.41 2.16-.86 4.81-.86Zm0 19.94q2.94 0 4.35-1.97 1.42-1.98 1.42-5.8t-1.42-5.82q-1.41-2-4.35-2-2.99 0-4.43 2.01-1.44 2.02-1.44 5.81 0 3.8 1.44 5.79 1.44 1.98 4.43 1.98Zm30.63-19.57h5.68v23.6h-3.47q-1.13 0-1.43-1.03l-.39-1.89q-1.45 1.47-3.19 2.38-1.75.91-4.12.91-1.93 0-3.42-.66-1.48-.65-2.49-1.85-1.01-1.19-1.53-2.84-.52-1.64-.52-3.62v-15h5.68v15q0 2.16 1 3.34 1 1.19 3 1.19 1.48 0 2.76-.66 1.29-.65 2.44-1.8v-17.07Zm16.22 1.04.39 1.86q.71-.71 1.5-1.32.8-.61 1.68-1.04.89-.42 1.9-.66 1.01-.25 2.21-.25 1.93 0 3.43.66 1.49.65 2.49 1.84 1 1.18 1.52 2.83.52 1.64.52 3.62v15.02h-5.68v-15.02q0-2.16-.99-3.35-.99-1.18-3.02-1.18-1.47 0-2.76.67-1.28.66-2.43 1.81v17.07h-5.68v-23.6h3.47q1.1 0 1.45 1.04Zm35.83 15.57v-10.58q-.96-1.18-2.1-1.66-1.14-.48-2.45-.48-1.29 0-2.33.48-1.03.48-1.77 1.46-.73.98-1.12 2.49-.39 1.5-.39 3.55 0 2.07.33 3.51.33 1.43.95 2.34.62.91 1.52 1.31.9.41 2 .41 1.77 0 3.02-.74 1.24-.73 2.34-2.09Zm0-27.19h5.68v34.18h-3.47q-1.13 0-1.43-1.03l-.48-2.28q-1.43 1.63-3.28 2.64-1.85 1.01-4.31 1.01-1.93 0-3.54-.8t-2.77-2.33q-1.16-1.53-1.8-3.79-.63-2.25-.63-5.15 0-2.62.71-4.88.72-2.25 2.05-3.91 1.33-1.65 3.2-2.58 1.86-.94 4.18-.94 1.98 0 3.38.63 1.41.62 2.51 1.68v-12.45Z"/></svg>